# xmcd CD database file
#
# Track frame offsets:
#	150
#	24327
#	48360
#	71445
#	96695
#	120277
#	143457
#	168755
#	188040
#	216042
#
# Disc length: 3232 seconds
#
# Revision: 0
# Processed by: cddbd v1.5.1PL0 Copyright (c) Steve Scherf et al.
# Submitted via: CDex 1.51
#
DISCID=7d0c9e0a
DTITLE=Def Jazz - Def Jazz vol. 1
DYEAR=2005
DGENRE=Jazz
TTITLE0=All I Need - (Hargrove, Roy - DeFrancesco, Joey)
TTITLE1=Hey Young World -(Albright, Gerald - Toney, Kevin)
TTITLE2=Can I Get A... - (Sills, Dwight - Lorber, Jeff)
TTITLE3=Doin' It - (Sills, Dwight - Bryant, Audra)
TTITLE4=Bring the Pain - (Laws, Hubert - Toney, Kevin)
TTITLE5=The Rain - (Jones, Oran "Juice" - Ledisi)
TTITLE6=Ghetto Jam - (Sills, Dwight - Braun, Rick)
TTITLE7=Get U Home - (Ach - Albright, Gerald)
TTITLE8=Back Seat -(Sills, Dwight - Lorber, Jeff)
TTITLE9=Give It Up - (DeFrancesco, Joey - Mayo, Scott)
EXTD=YEAR: 2005
EXTT0=
EXTT1=
EXTT2=
EXTT3=
EXTT4=
EXTT5=
EXTT6=
EXTT7=
EXTT8=
EXTT9=
PLAYORDER=
